<mxfile host="app.diagrams.net" modified="2023-06-08T15:41:07.370Z" agent="Mozilla/5.0 (Windows NT 10.0; Win64; x64) AppleWebKit/537.36 (KHTML, like Gecko) Chrome/113.0.0.0 Safari/537.36 Edg/113.0.1774.57" version="21.3.3" etag="xCoXi5pl7DGyfAZdqg8n" type="github">
  <diagram name="Page-1" id="QRuHNjkxRnGpMCgw-yJH">
    <mxGraphModel>
      <root>
        <mxCell id="0" />
        <mxCell id="1" parent="0" />
      </root>
    </mxGraphModel>
  </diagram>
</mxfile>
